<svg xmlns="http://www.w3.org/2000/svg" x="0px" y="0px" width="100" height="100" viewBox="0 0 128 128">
<path fill="#fff" d="M109,104H19c-5.5,0-10-4.5-10-10V34c0-5.5,4.5-10,10-10h90c5.5,0,10,4.5,10,10v60C119,99.5,114.5,104,109,104z"></path><path fill="#9eb9d3" d="M54-7.1c0-4.5-1.9-8.9-7.8-8.9-4.5 0-7.8 3.7-7.8 9.6 0 5.9 2.6 9.6 8.4 9.6 3.5 0 5.8-.9 6.6-1.5l-.6-4.1c-.7.4-8.3 3.5-8.6-2.1 0 0 0 0 0 0H54V-7.1zM44.2-8.1c.1-2 .6-3.9 2.2-3.9 1.9 0 2.1 2.8 2 3.8l0 0H44.2zM31.1-16c-1.5 0-3.1.7-4.6 2.2l-.3-1.8h-5.1V9.6l5.8-1V2.8c.6.3 1.4.5 2.5.5 5.3 0 7.8-4.3 7.8-9.5C37.2-11.2 36.2-16 31.1-16zM26.9-1.6V-9c0-.5 0-.9 0-1.4 1.6-1.3 4.4-2.7 4.4 3.7C31.3-.6 28.5-.8 26.9-1.6zM15.9-17.4c1.7 0 3.1-1.4 3.1-3.1 0-1.7-1.4-3.1-3.1-3.1s-3.1 1.4-3.1 3.1C12.7-18.8 14.1-17.4 15.9-17.4zM12.9-15.7h6V2.9h-6V-15.7zM1.4-15.7h5.1l.3 2.2c0 0 .9-3.1 4.6-2.3v5.4C8.1-10.6 7.2-9.2 7.2-9V2.9H1.4V-15.7zM-.6 2.8v-4.6C-3-1.2-3.9-1.6-3.9-3.7v-7.5h3l.7-4.4h-3.7v-5.3l-5 .8-.7 4.5-1.8.3-.6 4.1h2.4v8.7C-9.7 1.9-7 4.2-.6 2.8zM-18-1.8c.6-1.7-1.8-2.3-3.2-2.8-4.2-1.7-4.3-3-4.5-5.6-.2-2.6 1.3-4.1 3.1-5 2.8-1.3 8.3-.3 9.4.6l-.6 4.4c-5.6-2.4-6.3-1-6.4-.5-.5 2 5.7 2.1 7.3 5.4.8 1.7 1 4.7-.8 6.5C-17.5 5.1-25 2.3-26 1.6l.7-4.5C-24.5-2-18.6-.1-18-1.8z" transform="translate(50 71)"></path><g><path fill="#444b54" d="M109,107H19c-7.2,0-13-5.8-13-13V34c0-7.2,5.8-13,13-13h90c7.2,0,13,5.8,13,13v60C122,101.2,116.2,107,109,107z M19,27c-3.9,0-7,3.1-7,7v60c0,3.9,3.1,7,7,7h90c3.9,0,7-3.1,7-7V34c0-3.9-3.1-7-7-7H19z"></path></g><g><path fill="#444b54" d="M9,52c-0.2,0-0.4,0-0.6-0.1c-0.2,0-0.4-0.1-0.6-0.2c-0.2-0.1-0.3-0.2-0.5-0.3c-0.2-0.1-0.3-0.2-0.4-0.4c-0.1-0.1-0.3-0.3-0.4-0.4c-0.1-0.2-0.2-0.3-0.3-0.5c-0.1-0.2-0.1-0.4-0.2-0.6C6,49.4,6,49.2,6,49c0-0.8,0.3-1.6,0.9-2.1c0.7-0.7,1.7-1,2.7-0.8c0.2,0,0.4,0.1,0.6,0.2c0.2,0.1,0.4,0.2,0.5,0.3c0.2,0.1,0.3,0.2,0.4,0.4c0.1,0.1,0.3,0.3,0.4,0.4c0.1,0.2,0.2,0.3,0.3,0.5c0.1,0.2,0.1,0.4,0.2,0.6c0,0.2,0.1,0.4,0.1,0.6c0,0.2,0,0.4-0.1,0.6c0,0.2-0.1,0.4-0.2,0.6c-0.1,0.2-0.2,0.4-0.3,0.5c-0.1,0.2-0.2,0.3-0.4,0.4c-0.1,0.1-0.3,0.3-0.4,0.4c-0.2,0.1-0.3,0.2-0.5,0.3c-0.2,0.1-0.4,0.1-0.6,0.2C9.4,52,9.2,52,9,52z"></path></g>
</svg>